# xmcd CD database file
#
# Track frame offsets:
#	150
#	19813
#	44773
#	71857
#	91059
#	116255
#	136047
#	159444
#	179283
#	199463
#
# Disc length: 2938 seconds
#
# Revision: 0
# Processed by: cddbd v1.5.2PL0 Copyright (c) Steve Scherf et al.
# Submitted via: CDex 1.51
#
DISCID=860b780a
DTITLE=2002 - Damayanti
DYEAR=2011
DGENRE=New Age
TTITLE0=Forever My Love
TTITLE1=Flight Of The Swan
TTITLE2=Beauty And Grace
TTITLE3=Challenge From Heaven
TTITLE4=A Choice From The Heart
TTITLE5=Cycle Of Time
TTITLE6=A Divine Encounter
TTITLE7=Destinies
TTITLE8=Enduring Love
TTITLE9=Time Stands Still
EXTD=YEAR: 2011
EXTT0=
EXTT1=
EXTT2=
EXTT3=
EXTT4=
EXTT5=
EXTT6=
EXTT7=
EXTT8=
EXTT9=
PLAYORDER=
